<mxfile host="drawio-plugin" modified="2022-05-14T17:08:46.939Z" agent="5.0 (Macintosh; Intel Mac OS X 10_15_7) AppleWebKit/537.36 (KHTML, like Gecko) Chrome/97.0.4692.45 Safari/537.36" version="15.5.4" etag="WdgRi1w0rQjYEvSgOsnZ" type="embed"><diagram id="eODirc3pYXxl6S98fXJv" name="Page-1"><mxGraphModel dx="592" dy="1094" grid="1" gridSize="10" guides="1" tooltips="1" connect="1" arrows="1" fold="1" page="1" pageScale="1" pageWidth="1169" pageHeight="827" background="#FFFFFF" math="0" shadow="0"><root><mxCell id="0"/><mxCell id="1" parent="0"/><mxCell id="2" value="Catering Service - Class diagram" style="text;align=center;fontStyle=1;verticalAlign=middle;spacingLeft=3;spacingRight=3;strokeColor=none;rotatable=0;points=[[0,0.5],[1,0.5]];portConstraint=eastwest;rounded=1;sketch=1;" parent="1" vertex="1"><mxGeometry x="304" y="10" width="220" height="30" as="geometry"/></mxCell><mxCell id="72" style="edgeStyle=none;html=1;rounded=1;sketch=1;curved=1;" parent="1" source="44" target="59" edge="1"><mxGeometry relative="1" as="geometry"/></mxCell><mxCell id="73" value="Contains" style="edgeLabel;html=1;align=center;verticalAlign=middle;resizable=0;points=[];rounded=1;sketch=1;" parent="72" vertex="1" connectable="0"><mxGeometry x="-0.3908" y="1" relative="1" as="geometry"><mxPoint x="20" y="11" as="offset"/></mxGeometry></mxCell><mxCell id="44" value="Buffet" style="swimlane;fontStyle=1;align=center;verticalAlign=top;childLayout=stackLayout;horizontal=1;startSize=26;horizontalStack=0;resizeParent=1;resizeParentMax=0;resizeLast=0;collapsible=1;marginBottom=0;rounded=1;sketch=1;" parent="1" vertex="1"><mxGeometry x="128" y="130" width="120" height="80" as="geometry"/></mxCell><mxCell id="45" value="- name : string&#10;- description : string&#10;- chef : Chef" style="text;strokeColor=none;fillColor=none;align=left;verticalAlign=top;spacingLeft=4;spacingRight=4;overflow=hidden;rotatable=0;points=[[0,0.5],[1,0.5]];portConstraint=eastwest;rounded=1;sketch=1;" parent="44" vertex="1"><mxGeometry y="26" width="120" height="54" as="geometry"/></mxCell><mxCell id="48" value="Data type classes" style="swimlane;fontStyle=0;childLayout=stackLayout;horizontal=1;startSize=26;fillColor=none;horizontalStack=0;resizeParent=1;resizeParentMax=0;resizeLast=0;collapsible=1;marginBottom=0;rounded=1;sketch=1;" parent="1" vertex="1"><mxGeometry x="559" y="230" width="140" height="156" as="geometry"/></mxCell><mxCell id="49" value="Chef" style="text;strokeColor=none;fillColor=none;align=left;verticalAlign=top;spacingLeft=4;spacingRight=4;overflow=hidden;rotatable=0;points=[[0,0.5],[1,0.5]];portConstraint=eastwest;rounded=1;sketch=1;" parent="48" vertex="1"><mxGeometry y="26" width="140" height="26" as="geometry"/></mxCell><mxCell id="50" value="Dish" style="text;strokeColor=none;fillColor=none;align=left;verticalAlign=top;spacingLeft=4;spacingRight=4;overflow=hidden;rotatable=0;points=[[0,0.5],[1,0.5]];portConstraint=eastwest;rounded=1;sketch=1;" parent="48" vertex="1"><mxGeometry y="52" width="140" height="26" as="geometry"/></mxCell><mxCell id="51" value="Buffet" style="text;strokeColor=none;fillColor=none;align=left;verticalAlign=top;spacingLeft=4;spacingRight=4;overflow=hidden;rotatable=0;points=[[0,0.5],[1,0.5]];portConstraint=eastwest;rounded=1;sketch=1;" parent="48" vertex="1"><mxGeometry y="78" width="140" height="26" as="geometry"/></mxCell><mxCell id="53" value="Ingredient" style="text;strokeColor=none;fillColor=none;align=left;verticalAlign=top;spacingLeft=4;spacingRight=4;overflow=hidden;rotatable=0;points=[[0,0.5],[1,0.5]];portConstraint=eastwest;rounded=1;sketch=1;" parent="48" vertex="1"><mxGeometry y="104" width="140" height="26" as="geometry"/></mxCell><mxCell id="52" style="text;strokeColor=none;fillColor=none;align=left;verticalAlign=top;spacingLeft=4;spacingRight=4;overflow=hidden;rotatable=0;points=[[0,0.5],[1,0.5]];portConstraint=eastwest;rounded=1;sketch=1;" parent="48" vertex="1"><mxGeometry y="130" width="140" height="26" as="geometry"/></mxCell><mxCell id="71" value="Offers" style="edgeStyle=none;html=1;rounded=1;sketch=1;curved=1;entryX=0.528;entryY=1.061;entryDx=0;entryDy=0;entryPerimeter=0;" parent="1" source="55" target="45" edge="1"><mxGeometry relative="1" as="geometry"><mxPoint x="188.08333333333326" y="244" as="targetPoint"/></mxGeometry></mxCell><mxCell id="55" value="Chef" style="swimlane;fontStyle=1;align=center;verticalAlign=top;childLayout=stackLayout;horizontal=1;startSize=26;horizontalStack=0;resizeParent=1;resizeParentMax=0;resizeLast=0;collapsible=1;marginBottom=0;rounded=1;sketch=1;" parent="1" vertex="1"><mxGeometry x="128" y="300" width="120" height="80" as="geometry"/></mxCell><mxCell id="56" value="- firstName : string&#10;- lastName : string&#10;- nationality : string" style="text;strokeColor=none;fillColor=none;align=left;verticalAlign=top;spacingLeft=4;spacingRight=4;overflow=hidden;rotatable=0;points=[[0,0.5],[1,0.5]];portConstraint=eastwest;rounded=1;sketch=1;" parent="55" vertex="1"><mxGeometry y="26" width="120" height="54" as="geometry"/></mxCell><mxCell id="74" style="edgeStyle=none;html=1;entryX=0.5;entryY=0;entryDx=0;entryDy=0;rounded=1;sketch=1;curved=1;" parent="1" source="59" target="64" edge="1"><mxGeometry relative="1" as="geometry"><Array as="points"/></mxGeometry></mxCell><mxCell id="75" value="IsMadeWith" style="edgeLabel;html=1;align=center;verticalAlign=middle;resizable=0;points=[];rounded=1;sketch=1;" parent="74" vertex="1" connectable="0"><mxGeometry x="-0.2321" y="3" relative="1" as="geometry"><mxPoint as="offset"/></mxGeometry></mxCell><mxCell id="59" value="Dish" style="swimlane;fontStyle=1;align=center;verticalAlign=top;childLayout=stackLayout;horizontal=1;startSize=26;horizontalStack=0;resizeParent=1;resizeParentMax=0;resizeLast=0;collapsible=1;marginBottom=0;rounded=1;sketch=1;" parent="1" vertex="1"><mxGeometry x="351" y="135" width="118" height="70" as="geometry"/></mxCell><mxCell id="60" value="- name : string&#10;- description : string" style="text;strokeColor=none;fillColor=none;align=left;verticalAlign=top;spacingLeft=4;spacingRight=4;overflow=hidden;rotatable=0;points=[[0,0.5],[1,0.5]];portConstraint=eastwest;rounded=1;sketch=1;" parent="59" vertex="1"><mxGeometry y="26" width="118" height="44" as="geometry"/></mxCell><mxCell id="64" value="Ingredient" style="swimlane;fontStyle=1;align=center;verticalAlign=top;childLayout=stackLayout;horizontal=1;startSize=26;horizontalStack=0;resizeParent=1;resizeParentMax=0;resizeLast=0;collapsible=1;marginBottom=0;rounded=1;sketch=1;" parent="1" vertex="1"><mxGeometry x="343" y="300" width="136" height="80" as="geometry"/></mxCell><mxCell id="65" value="- name : string&#10;- origin : string&#10;- description : string" style="text;strokeColor=none;fillColor=none;align=left;verticalAlign=top;spacingLeft=4;spacingRight=4;overflow=hidden;rotatable=0;points=[[0,0.5],[1,0.5]];portConstraint=eastwest;rounded=1;sketch=1;" parent="64" vertex="1"><mxGeometry y="26" width="136" height="54" as="geometry"/></mxCell><mxCell id="76" value="User" style="swimlane;fontStyle=1;align=center;verticalAlign=top;childLayout=stackLayout;horizontal=1;startSize=26;horizontalStack=0;resizeParent=1;resizeParentMax=0;resizeLast=0;collapsible=1;marginBottom=0;rounded=1;sketch=1;" parent="1" vertex="1"><mxGeometry x="213" y="420" width="130" height="120" as="geometry"/></mxCell><mxCell id="77" value="- firstName : string&#10;- lastName : string&#10;- emailAddress : string&#10;- isSignedIn : boolean&#10;- accessToken : token&#10;- role : string" style="text;strokeColor=none;fillColor=none;align=left;verticalAlign=top;spacingLeft=4;spacingRight=4;overflow=hidden;rotatable=0;points=[[0,0.5],[1,0.5]];portConstraint=eastwest;rounded=1;sketch=1;" parent="76" vertex="1"><mxGeometry y="26" width="130" height="94" as="geometry"/></mxCell><mxCell id="82" value="&lt;font style=&quot;font-size: 9px&quot;&gt;0 .. *&lt;/font&gt;" style="text;html=1;strokeColor=none;fillColor=none;align=center;verticalAlign=middle;whiteSpace=wrap;rounded=0;sketch=1;" parent="1" vertex="1"><mxGeometry x="190" y="210" width="42" height="30" as="geometry"/></mxCell><mxCell id="83" value="&lt;font style=&quot;font-size: 9px&quot;&gt;1&lt;/font&gt;" style="text;html=1;strokeColor=none;fillColor=none;align=center;verticalAlign=middle;whiteSpace=wrap;rounded=0;sketch=1;" parent="1" vertex="1"><mxGeometry x="180" y="270" width="42" height="30" as="geometry"/></mxCell><mxCell id="84" value="&lt;font style=&quot;font-size: 9px&quot;&gt;0 .. *&lt;/font&gt;" style="text;html=1;strokeColor=none;fillColor=none;align=center;verticalAlign=middle;whiteSpace=wrap;rounded=0;sketch=1;" parent="1" vertex="1"><mxGeometry x="304" y="135" width="42" height="30" as="geometry"/></mxCell><mxCell id="87" value="&lt;font style=&quot;font-size: 9px&quot;&gt;0 .. *&lt;/font&gt;" style="text;html=1;strokeColor=none;fillColor=none;align=center;verticalAlign=middle;whiteSpace=wrap;rounded=0;sketch=1;" parent="1" vertex="1"><mxGeometry x="248" y="135" width="42" height="30" as="geometry"/></mxCell><mxCell id="88" value="&lt;font style=&quot;font-size: 9px&quot;&gt;0 .. *&lt;/font&gt;" style="text;html=1;strokeColor=none;fillColor=none;align=center;verticalAlign=middle;whiteSpace=wrap;rounded=0;sketch=1;" parent="1" vertex="1"><mxGeometry x="410" y="270" width="42" height="30" as="geometry"/></mxCell><mxCell id="89" value="&lt;font style=&quot;font-size: 9px&quot;&gt;0 .. *&lt;/font&gt;" style="text;html=1;strokeColor=none;fillColor=none;align=center;verticalAlign=middle;whiteSpace=wrap;rounded=0;sketch=1;" parent="1" vertex="1"><mxGeometry x="410" y="200" width="42" height="30" as="geometry"/></mxCell></root></mxGraphModel></diagram></mxfile>